<?xml version="1.0" encoding="utf-8"?>
<!-- Generator: Adobe Illustrator 16.0.0, SVG Export Plug-In . SVG Version: 6.00 Build 0)  -->
<!DOCTYPE svg PUBLIC "-//W3C//DTD SVG 1.1//EN" "http://www.w3.org/Graphics/SVG/1.1/DTD/svg11.dtd">
<svg version="1.1" id="图层_1" xmlns="http://www.w3.org/2000/svg" xmlns:xlink="http://www.w3.org/1999/xlink" x="0px" y="0px"
	 width="255.118px" height="255.118px" viewBox="0 0 255.118 255.118" enable-background="new 0 0 255.118 255.118"
	 xml:space="preserve">
<g>
	<path fill="#3DAB53" d="M127.863,154.198c-14.587,0.098-26.527-9.521-27.333-27.425c-0.75-16.659,13.75-27.909,27.704-28.242
		c16.042-0.383,25.629,18,25.629,18l41.332-15.333c0,0-17-44.334-62.999-44.334c-43,0-72.668,30-72.666,70.667
		c0.001,36.154,28,72.333,71.666,70.667c47.964-1.832,64.393-44.267,64.393-44.267l-42.393-14.067
		C153.196,139.864,144.542,154.198,127.863,154.198"/>
	<path fill="none" stroke="#006737" stroke-width="5" stroke-miterlimit="10" d="M127.863,154.198
		c-14.587,0.098-26.527-9.521-27.333-27.425c-0.75-16.659,13.75-27.909,27.704-28.242c16.042-0.383,25.629,18,25.629,18
		l41.332-15.333c0,0-17-44.334-62.999-44.334c-43,0-72.668,30-72.666,70.667c0.001,36.154,28,72.333,71.666,70.667
		c47.964-1.832,64.393-44.267,64.393-44.267l-42.393-14.067C153.196,139.864,144.542,154.198,127.863,154.198"/>
</g>
</svg>
